<svg xmlns="http://www.w3.org/2000/svg" xmlns:xlink="http://www.w3.org/1999/xlink" width="170" height="60"><defs><path d="M9.842 0h150.316C165.594 0 170 4.22 170 9.43V50.57c0 5.207-4.406 9.43-9.842 9.43H9.842C4.406 60 0 55.78 0 50.57V9.43C0 4.22 4.406 0 9.842 0z" id="A"/></defs><g fill="none" fill-rule="evenodd"><mask id="B" fill="#fff"><use xlink:href="#A"/></mask><use fill="#ffd7d7" xlink:href="#A"/><g mask="url(#B)"><path fill="#0052ff" fill-rule="nonzero" d="M-10-22h200V7H-10z"/><path d="M190 28C140 28 140-7.097 90-7.097S39.623 28-10 28M190-.903C140-.903 140-36 90-36S39.623-.903-10-.903" stroke="#004df3" stroke-width="12"/><path fill="#0052ff" fill-rule="nonzero" d="M-10 7h200v29H-10z"/><path d="M190 57c-50 0-50-35.097-100-35.097S39.623 57-10 57m200-28.903C140 28.097 140-7 90-7S39.623 28.097-10 28.097" stroke="#004df3" stroke-width="12"/><path fill="#0052ff" fill-rule="nonzero" d="M-10 36h200v29H-10z"/><path d="M190 86c-50 0-50-35.097-100-35.097S39.623 86-10 86m200-28.903C140 57.097 140 22 90 22S39.623 57.097-10 57.097" stroke="#004df3" stroke-width="12"/></g><g fill="#fff"><g mask="url(#B)"><path d="M31 7c12.702.002 22.998 10.298 23 23S43.702 52.998 31 53 8.002 42.702 8 30 18.298 7.002 31 7zm1.804 7.317c.187-.196.494-.242.733-.093.203.127.308.365.266.6l-2.262 12.42H39.4l.105.01c.272.05.48.288.48.575a.58.58 0 0 1-.089.31L29.098 45.414l-.072.094c-.187.196-.494.242-.733.093-.203-.127-.308-.365-.266-.6l2.26-12.42H22.43l-.105-.01c-.272-.05-.48-.288-.48-.575a.58.58 0 0 1 .089-.31l10.868-17.37z"/></g><path d="M67.123 22.86c-.922.374-1.123.72-1.123 1.642v18.317c0 .662.23.893.893.893h1.584c.662 0 .864-.23.864-.893v-5.53c1.325.346 2.333.518 3.024.518 4.29 0 6.422-2.016 6.422-6.02v-3.946c0-3.773-2.016-5.818-6.077-5.818-2.218 0-4.06.288-5.587.835zm8.323 8.813c0 2.045-1.094 3.082-3.312 3.082-.75 0-1.67-.144-2.794-.432v-8.554c0-.173.086-.288.288-.374.75-.202 1.613-.317 2.592-.317 2.16 0 3.226.95 3.226 2.85v3.744zm6.142-6.653c-.317.576-.144 1.008.5 1.296l1.152.5c.662.23.806.173 1.238-.432C85.073 25.45 86.08 25 87.492 25c2.074 0 2.88.98 2.88 2.85v.806l-2.615-.14-.15-.004c-4.694 0-6.538 1.2-6.538 4.637 0 1.584.46 2.765 1.382 3.514.922.778 2.592 1.152 5.04 1.152 2.304 0 4.032-.26 5.184-.75.806-.346 1.037-.634 1.037-1.642v-7.46c0-3.946-2.045-5.933-6.163-5.933-2.938 0-4.925 1.008-5.962 2.995zm8.784 9.39c0 .202-.115.317-.317.403-.69.144-1.642.23-2.88.23-2.102 0-2.707-.634-2.707-1.93 0-1.224.644-1.83 2.555-1.87h.287l3.062.14v3.024zm13.025-12.384c-2.16.058-3.946.346-5.357.864-.922.374-1.123.72-1.123 1.642v11.952c0 .662.23.893.893.893h1.584c.662 0 .864-.23.864-.893V25.768c0-.202.086-.317.288-.346.75-.23 1.67-.346 2.736-.346h1.037c.662 0 .893-.23.893-.893v-1.267c0-.69-.23-.893-.893-.893h-.922zM109.625 19c-.662 0-.893.202-.893.864v2.592h-1.987c-.662 0-.864.202-.864.864v1.325c0 .662.202.893.864.893h1.987v5.904c0 2.448.5 4.147 1.498 5.07.98.922 2.678 1.354 5.098 1.267.69-.03.922-.23.922-.922V35.53c0-.648-.203-.866-.797-.9l-.124-.002c-1.267 0-2.13-.202-2.563-.634-.46-.432-.69-1.325-.69-2.678v-5.79h3.283c.662 0 .893-.23.893-.893V23.32c0-.662-.23-.864-.893-.864h-3.283v-2.592c0-.662-.23-.864-.893-.864h-1.555zm10.116 4.003c-.922.374-1.123.72-1.123 1.642v11.837c0 .662.23.893.893.893h1.584c.662 0 .864-.23.864-.893V25.74c0-.144.058-.23.202-.288a10.15 10.15 0 0 1 2.765-.374c2.102 0 3.14.95 3.14 2.822v8.582c0 .662.202.893.864.893h1.584c.662 0 .893-.23.893-.893v-8.67c0-3.715-1.958-5.79-6-5.79-2.16 0-4.032.317-5.674.98zm14.522 8.64c0 3.773 2.13 6.163 6.624 6.163 3.024 0 5.098-.922 6.22-2.765.432-.662.317-1.123-.346-1.44l-1.008-.547c-.69-.374-1.008-.317-1.47.346-.662 1.008-1.786 1.526-3.398 1.526-2.102 0-3.283-1.008-3.283-2.88V30.98h8.698c.864 0 1.296-.403 1.296-1.238v-1.757c0-3.485-2.275-5.962-6.653-5.962-4.35 0-6.682 2.19-6.682 6.22v3.398zm9.994-3.226h-6.653v-.634c0-1.872 1.18-2.938 3.34-2.938 2.19 0 3.312 1.066 3.312 2.938v.634zm12.593-6.394h.922c.662 0 .893.202.893.893v1.267c0 .662-.23.893-.893.893h-1.037c-1.066 0-1.987.115-2.736.346-.202.03-.288.144-.288.346v10.714c0 .662-.202.893-.864.893h-1.584c-.662 0-.893-.23-.893-.893V24.53c0-.922.202-1.267 1.123-1.642 1.41-.518 3.197-.806 5.357-.864z" fill-rule="nonzero" mask="url(#B)"/></g></g></svg>